<?xml version="1.0" encoding="UTF-8" standalone="no"?>
<!DOCTYPE svg PUBLIC "-//W3C//DTD SVG 1.1//EN"
 "http://www.w3.org/Graphics/SVG/1.1/DTD/svg11.dtd">
<!-- Generated by graphviz version 2.40.1 (20161225.0304)
 -->
<!-- Title: G Pages: 1 -->
<svg width="1931pt" height="514pt"
 viewBox="0.00 0.00 1930.75 514.02" xmlns="http://www.w3.org/2000/svg" xmlns:xlink="http://www.w3.org/1999/xlink">
<g id="graph0" class="graph" transform="scale(1 1) rotate(0) translate(4 510.0174)">
<title>G</title>
<polygon fill="#ffffff" stroke="transparent" points="-4,4 -4,-510.0174 1926.7461,-510.0174 1926.7461,4 -4,4"/>
<text text-anchor="middle" x="961.373" y="-5.6" font-family="Times,serif" font-size="8.00" fill="#000000">PhpDependencyAnalysis by Marco Muths (dev&#45;master)</text>
<g id="clust1" class="cluster">
<title>cluster_0</title>
<path fill="#ccccff" stroke="#000033" d="M20,-160.0174C20,-160.0174 1759.751,-160.0174 1759.751,-160.0174 1765.751,-160.0174 1771.751,-166.0174 1771.751,-172.0174 1771.751,-172.0174 1771.751,-486.0174 1771.751,-486.0174 1771.751,-492.0174 1765.751,-498.0174 1759.751,-498.0174 1759.751,-498.0174 20,-498.0174 20,-498.0174 14,-498.0174 8,-492.0174 8,-486.0174 8,-486.0174 8,-172.0174 8,-172.0174 8,-166.0174 14,-160.0174 20,-160.0174"/>
<text text-anchor="middle" x="44.7793" y="-482.8174" font-family="Times,serif" font-size="14.00" fill="#000033">SimplePie</text>
</g>
<g id="clust2" class="cluster">
<title>cluster_1</title>
<path fill="#ccccff" stroke="#000033" d="M1839.751,-80.0174C1839.751,-80.0174 1902.7461,-80.0174 1902.7461,-80.0174 1908.7461,-80.0174 1914.7461,-86.0174 1914.7461,-92.0174 1914.7461,-92.0174 1914.7461,-228.0174 1914.7461,-228.0174 1914.7461,-234.0174 1908.7461,-240.0174 1902.7461,-240.0174 1902.7461,-240.0174 1839.751,-240.0174 1839.751,-240.0174 1833.751,-240.0174 1827.751,-234.0174 1827.751,-228.0174 1827.751,-228.0174 1827.751,-92.0174 1827.751,-92.0174 1827.751,-86.0174 1833.751,-80.0174 1839.751,-80.0174"/>
<text text-anchor="middle" x="1844.6992" y="-224.8174" font-family="Times,serif" font-size="14.00" fill="#000033">Psr</text>
</g>
<g id="clust3" class="cluster">
<title>cluster_2</title>
<path fill="#ccccff" stroke="#000033" d="M434.8574,-55.0174C434.8574,-55.0174 521.1875,-55.0174 521.1875,-55.0174 527.1875,-55.0174 533.1875,-61.0174 533.1875,-67.0174 533.1875,-67.0174 533.1875,-117.0174 533.1875,-117.0174 533.1875,-123.0174 527.1875,-129.0174 521.1875,-129.0174 521.1875,-129.0174 434.8574,-129.0174 434.8574,-129.0174 428.8574,-129.0174 422.8574,-123.0174 422.8574,-117.0174 422.8574,-117.0174 422.8574,-67.0174 422.8574,-67.0174 422.8574,-61.0174 428.8574,-55.0174 434.8574,-55.0174"/>
<text text-anchor="middle" x="451.8574" y="-113.8174" font-family="Times,serif" font-size="14.00" fill="#000033">Skyzyx</text>
</g>
<!-- SimplePie\\Configuration -->
<g id="node1" class="node">
<title>SimplePie\\Configuration</title>
<path fill="#9999cc" stroke="#000000" d="M119.6732,-386.0174C119.6732,-386.0174 27.775,-386.0174 27.775,-386.0174 21.775,-386.0174 15.775,-380.0174 15.775,-374.0174 15.775,-374.0174 15.775,-362.0174 15.775,-362.0174 15.775,-356.0174 21.775,-350.0174 27.775,-350.0174 27.775,-350.0174 119.6732,-350.0174 119.6732,-350.0174 125.6732,-350.0174 131.6732,-356.0174 131.6732,-362.0174 131.6732,-362.0174 131.6732,-374.0174 131.6732,-374.0174 131.6732,-380.0174 125.6732,-386.0174 119.6732,-386.0174"/>
<text text-anchor="middle" x="73.7241" y="-365.0174" font-family="Times,serif" font-size="10.00" fill="#000033">SimplePie\Configuration</text>
</g>
<!-- SimplePie\\HandlerStackInterface -->
<g id="node2" class="node">
<title>SimplePie\\HandlerStackInterface</title>
<path fill="#9999cc" stroke="#000000" d="M1579.2364,-459.0174C1579.2364,-459.0174 1453.5605,-459.0174 1453.5605,-459.0174 1447.5605,-459.0174 1441.5605,-453.0174 1441.5605,-447.0174 1441.5605,-447.0174 1441.5605,-435.0174 1441.5605,-435.0174 1441.5605,-429.0174 1447.5605,-423.0174 1453.5605,-423.0174 1453.5605,-423.0174 1579.2364,-423.0174 1579.2364,-423.0174 1585.2364,-423.0174 1591.2364,-429.0174 1591.2364,-435.0174 1591.2364,-435.0174 1591.2364,-447.0174 1591.2364,-447.0174 1591.2364,-453.0174 1585.2364,-459.0174 1579.2364,-459.0174"/>
<text text-anchor="middle" x="1516.3984" y="-438.0174" font-family="Times,serif" font-size="10.00" fill="#000033">SimplePie\HandlerStackInterface</text>
</g>
<!-- SimplePie\\Configuration&#45;&gt;SimplePie\\HandlerStackInterface -->
<g id="edge3" class="edge">
<title>SimplePie\\Configuration&#45;&gt;SimplePie\\HandlerStackInterface</title>
<path fill="none" stroke="#999999" d="M100.1489,-386.2982C125.4205,-402.7261 165.2322,-425.9211 203.4482,-437.0174 320.9834,-471.1445 355.6331,-458.0174 478.0225,-458.0174 478.0225,-458.0174 478.0225,-458.0174 1175.4155,-458.0174 1264.3078,-458.0174 1366.0738,-452.183 1435.1218,-447.3501"/>
<polygon fill="#999999" stroke="#999999" points="1435.4456,-449.4326 1441.2829,-446.9155 1435.15,-445.243 1435.4456,-449.4326"/>
</g>
<!-- SimplePie\\Container -->
<g id="node3" class="node">
<title>SimplePie\\Container</title>
<path fill="#9999cc" stroke="#000000" d="M298.4317,-256.0174C298.4317,-256.0174 222.7802,-256.0174 222.7802,-256.0174 216.7802,-256.0174 210.7802,-250.0174 210.7802,-244.0174 210.7802,-244.0174 210.7802,-232.0174 210.7802,-232.0174 210.7802,-226.0174 216.7802,-220.0174 222.7802,-220.0174 222.7802,-220.0174 298.4317,-220.0174 298.4317,-220.0174 304.4317,-220.0174 310.4317,-226.0174 310.4317,-232.0174 310.4317,-232.0174 310.4317,-244.0174 310.4317,-244.0174 310.4317,-250.0174 304.4317,-256.0174 298.4317,-256.0174"/>
<text text-anchor="middle" x="260.606" y="-235.0174" font-family="Times,serif" font-size="10.00" fill="#000033">SimplePie\Container</text>
</g>
<!-- SimplePie\\Configuration&#45;&gt;SimplePie\\Container -->
<g id="edge4" class="edge">
<title>SimplePie\\Configuration&#45;&gt;SimplePie\\Container</title>
<path fill="none" stroke="#999999" d="M99.7092,-349.9415C133.6443,-326.3353 192.9958,-285.0488 229.3499,-259.76"/>
<polygon fill="#999999" stroke="#999999" points="230.8147,-261.2992 234.541,-256.1489 228.4162,-257.8513 230.8147,-261.2992"/>
</g>
<!-- SimplePie\\Exception -->
<g id="node4" class="node">
<title>SimplePie\\Exception</title>
<path fill="#9999cc" stroke="#000000" d="M1751.9687,-370.0174C1751.9687,-370.0174 1675.0996,-370.0174 1675.0996,-370.0174 1669.0996,-370.0174 1663.0996,-364.0174 1663.0996,-358.0174 1663.0996,-358.0174 1663.0996,-346.0174 1663.0996,-346.0174 1663.0996,-340.0174 1669.0996,-334.0174 1675.0996,-334.0174 1675.0996,-334.0174 1751.9687,-334.0174 1751.9687,-334.0174 1757.9687,-334.0174 1763.9687,-340.0174 1763.9687,-346.0174 1763.9687,-346.0174 1763.9687,-358.0174 1763.9687,-358.0174 1763.9687,-364.0174 1757.9687,-370.0174 1751.9687,-370.0174"/>
<text text-anchor="middle" x="1713.5342" y="-349.0174" font-family="Times,serif" font-size="10.00" fill="#000033">SimplePie\Exception</text>
</g>
<!-- SimplePie\\Configuration&#45;&gt;SimplePie\\Exception -->
<g id="edge5" class="edge">
<title>SimplePie\\Configuration&#45;&gt;SimplePie\\Exception</title>
<path fill="none" stroke="#999999" d="M131.6676,-355.6159C194.8191,-342.6008 298.9924,-322.5927 389.7637,-312.0174 467.8138,-302.9242 488.7546,-314.8286 566.2813,-302.0174 599.0485,-296.6027 605.6054,-287.9586 638.2813,-282.0174 727.0665,-265.8743 750.283,-264.0174 840.5239,-264.0174 840.5239,-264.0174 840.5239,-264.0174 1327.3096,-264.0174 1448.7165,-264.0174 1586.3469,-305.8654 1660.0908,-331.8448"/>
<polygon fill="#999999" stroke="#999999" points="1659.8001,-333.9699 1666.1569,-333.997 1661.2044,-330.0116 1659.8001,-333.9699"/>
</g>
<!-- SimplePie\\Enum -->
<g id="node5" class="node">
<title>SimplePie\\Enum</title>
<path fill="#9999cc" stroke="#000000" d="M1357.0882,-431.0174C1357.0882,-431.0174 1297.531,-431.0174 1297.531,-431.0174 1291.531,-431.0174 1285.531,-425.0174 1285.531,-419.0174 1285.531,-419.0174 1285.531,-407.0174 1285.531,-407.0174 1285.531,-401.0174 1291.531,-395.0174 1297.531,-395.0174 1297.531,-395.0174 1357.0882,-395.0174 1357.0882,-395.0174 1363.0882,-395.0174 1369.0882,-401.0174 1369.0882,-407.0174 1369.0882,-407.0174 1369.0882,-419.0174 1369.0882,-419.0174 1369.0882,-425.0174 1363.0882,-431.0174 1357.0882,-431.0174"/>
<text text-anchor="middle" x="1327.3096" y="-410.0174" font-family="Times,serif" font-size="10.00" fill="#000033">SimplePie\Enum</text>
</g>
<!-- SimplePie\\Configuration&#45;&gt;SimplePie\\Enum -->
<g id="edge6" class="edge">
<title>SimplePie\\Configuration&#45;&gt;SimplePie\\Enum</title>
<path fill="none" stroke="#999999" d="M100.6245,-386.1901C125.9103,-402.0977 165.4512,-424.0305 203.4482,-433.0174 252.891,-444.7115 266.9577,-433.3231 317.7637,-433.0174 650.194,-431.0174 733.2986,-429.3987 1065.6914,-424.0174 1131.2289,-422.9564 1147.6603,-423.9758 1213.1396,-421.0174 1234.8159,-420.0381 1258.7742,-418.4385 1279.1231,-416.9261"/>
<polygon fill="#999999" stroke="#999999" points="1279.4904,-419.0045 1285.3159,-416.4603 1279.1753,-414.8163 1279.4904,-419.0045"/>
</g>
<!-- SimplePie\\HandlerStack -->
<g id="node6" class="node">
<title>SimplePie\\HandlerStack</title>
<path fill="#9999cc" stroke="#000000" d="M305.9218,-430.0174C305.9218,-430.0174 215.2901,-430.0174 215.2901,-430.0174 209.2901,-430.0174 203.2901,-424.0174 203.2901,-418.0174 203.2901,-418.0174 203.2901,-406.0174 203.2901,-406.0174 203.2901,-400.0174 209.2901,-394.0174 215.2901,-394.0174 215.2901,-394.0174 305.9218,-394.0174 305.9218,-394.0174 311.9218,-394.0174 317.9218,-400.0174 317.9218,-406.0174 317.9218,-406.0174 317.9218,-418.0174 317.9218,-418.0174 317.9218,-424.0174 311.9218,-430.0174 305.9218,-430.0174"/>
<text text-anchor="middle" x="260.606" y="-409.0174" font-family="Times,serif" font-size="10.00" fill="#000033">SimplePie\HandlerStack</text>
</g>
<!-- SimplePie\\Configuration&#45;&gt;SimplePie\\HandlerStack -->
<g id="edge8" class="edge">
<title>SimplePie\\Configuration&#45;&gt;SimplePie\\HandlerStack</title>
<path fill="none" stroke="#ff0099" stroke-width="2" d="M131.5749,-379.5398C151.8214,-384.1256 174.689,-389.4905 195.4886,-394.5305"/>
<polygon fill="#ff0099" stroke="#ff0099" stroke-width="2" points="194.914,-397.2723 203.3493,-396.4439 196.2385,-391.8312 194.914,-397.2723"/>
</g>
<!-- SimplePie\\Middleware -->
<g id="node7" class="node">
<title>SimplePie\\Middleware</title>
<path fill="#9999cc" stroke="#000000" d="M520.2297,-351.0174C520.2297,-351.0174 435.8152,-351.0174 435.8152,-351.0174 429.8152,-351.0174 423.8152,-345.0174 423.8152,-339.0174 423.8152,-339.0174 423.8152,-327.0174 423.8152,-327.0174 423.8152,-321.0174 429.8152,-315.0174 435.8152,-315.0174 435.8152,-315.0174 520.2297,-315.0174 520.2297,-315.0174 526.2297,-315.0174 532.2297,-321.0174 532.2297,-327.0174 532.2297,-327.0174 532.2297,-339.0174 532.2297,-339.0174 532.2297,-345.0174 526.2297,-351.0174 520.2297,-351.0174"/>
<text text-anchor="middle" x="478.0225" y="-330.0174" font-family="Times,serif" font-size="10.00" fill="#000033">SimplePie\Middleware</text>
</g>
<!-- SimplePie\\Configuration&#45;&gt;SimplePie\\Middleware -->
<g id="edge9" class="edge">
<title>SimplePie\\Configuration&#45;&gt;SimplePie\\Middleware</title>
<path fill="none" stroke="#ff0099" stroke-width="2" d="M131.6502,-361.3692C206.964,-354.0435 338.0068,-342.6834 415.5078,-336.7483"/>
<polygon fill="#ff0099" stroke="#ff0099" stroke-width="2" points="415.996,-339.5194 423.761,-336.1216 415.5719,-333.9355 415.996,-339.5194"/>
</g>
<!-- Psr\\Container -->
<g id="node18" class="node">
<title>Psr\\Container</title>
<path fill="#9999cc" stroke="#000000" d="M1894.7437,-167.0174C1894.7437,-167.0174 1847.7534,-167.0174 1847.7534,-167.0174 1841.7534,-167.0174 1835.7534,-161.0174 1835.7534,-155.0174 1835.7534,-155.0174 1835.7534,-143.0174 1835.7534,-143.0174 1835.7534,-137.0174 1841.7534,-131.0174 1847.7534,-131.0174 1847.7534,-131.0174 1894.7437,-131.0174 1894.7437,-131.0174 1900.7437,-131.0174 1906.7437,-137.0174 1906.7437,-143.0174 1906.7437,-143.0174 1906.7437,-155.0174 1906.7437,-155.0174 1906.7437,-161.0174 1900.7437,-167.0174 1894.7437,-167.0174"/>
<text text-anchor="middle" x="1871.2485" y="-146.0174" font-family="Times,serif" font-size="10.00" fill="#000033">Psr\Container</text>
</g>
<!-- SimplePie\\Configuration&#45;&gt;Psr\\Container -->
<g id="edge1" class="edge">
<title>SimplePie\\Configuration&#45;&gt;Psr\\Container</title>
<path fill="none" stroke="#999999" d="M85.8269,-349.9826C97.7808,-331.9789 116.4051,-303.4106 131.4482,-278.0174 165.5087,-220.5225 155.2434,-192.3 203.4482,-146.0174 297.4657,-55.7491 347.6858,-43.0174 478.0225,-43.0174 478.0225,-43.0174 478.0225,-43.0174 1516.3984,-43.0174 1634.0453,-43.0174 1764.799,-97.1703 1829.8202,-128.0639"/>
<polygon fill="#999999" stroke="#999999" points="1829.207,-130.0985 1835.5256,-130.7954 1831.0207,-126.3103 1829.207,-130.0985"/>
</g>
<!-- Psr\\Log -->
<g id="node19" class="node">
<title>Psr\\Log</title>
<path fill="#9999cc" stroke="#000000" d="M1886.2485,-124.0174C1886.2485,-124.0174 1856.2485,-124.0174 1856.2485,-124.0174 1850.2485,-124.0174 1844.2485,-118.0174 1844.2485,-112.0174 1844.2485,-112.0174 1844.2485,-100.0174 1844.2485,-100.0174 1844.2485,-94.0174 1850.2485,-88.0174 1856.2485,-88.0174 1856.2485,-88.0174 1886.2485,-88.0174 1886.2485,-88.0174 1892.2485,-88.0174 1898.2485,-94.0174 1898.2485,-100.0174 1898.2485,-100.0174 1898.2485,-112.0174 1898.2485,-112.0174 1898.2485,-118.0174 1892.2485,-124.0174 1886.2485,-124.0174"/>
<text text-anchor="middle" x="1871.2485" y="-103.0174" font-family="Times,serif" font-size="10.00" fill="#000033">Psr\Log</text>
</g>
<!-- SimplePie\\Configuration&#45;&gt;Psr\\Log -->
<g id="edge2" class="edge">
<title>SimplePie\\Configuration&#45;&gt;Psr\\Log</title>
<path fill="none" stroke="#999999" d="M87.2968,-349.8409C99.9997,-332.1963 118.8581,-304.3009 131.4482,-278.0174 174.9823,-187.1348 125.5506,-126.9457 203.4482,-63.0174 298.5447,15.0255 355.002,-28.0174 478.0225,-28.0174 478.0225,-28.0174 478.0225,-28.0174 1516.3984,-28.0174 1555.4061,-28.0174 1705.0393,-45.4631 1771.751,-64.0174 1794.6699,-70.3918 1819.3104,-80.764 1838.3366,-89.6057"/>
<polygon fill="#999999" stroke="#999999" points="1837.7296,-91.6409 1844.0529,-92.2945 1839.5173,-87.8404 1837.7296,-91.6409"/>
</g>
<!-- Skyzyx\\UtilityPack -->
<g id="node21" class="node">
<title>Skyzyx\\UtilityPack</title>
<path fill="#9999cc" stroke="#000000" d="M513.3531,-99.0174C513.3531,-99.0174 442.6918,-99.0174 442.6918,-99.0174 436.6918,-99.0174 430.6918,-93.0174 430.6918,-87.0174 430.6918,-87.0174 430.6918,-75.0174 430.6918,-75.0174 430.6918,-69.0174 436.6918,-63.0174 442.6918,-63.0174 442.6918,-63.0174 513.3531,-63.0174 513.3531,-63.0174 519.3531,-63.0174 525.3531,-69.0174 525.3531,-75.0174 525.3531,-75.0174 525.3531,-87.0174 525.3531,-87.0174 525.3531,-93.0174 519.3531,-99.0174 513.3531,-99.0174"/>
<text text-anchor="middle" x="478.0225" y="-78.0174" font-family="Times,serif" font-size="10.00" fill="#000033">Skyzyx\UtilityPack</text>
</g>
<!-- SimplePie\\Configuration&#45;&gt;Skyzyx\\UtilityPack -->
<g id="edge7" class="edge">
<title>SimplePie\\Configuration&#45;&gt;Skyzyx\\UtilityPack</title>
<path fill="none" stroke="#999999" d="M85.7929,-349.6628C106.7168,-318.962 152.4103,-256.6664 203.4482,-217.0174 272.7975,-163.1433 366.8827,-122.1978 424.965,-99.9093"/>
<polygon fill="#999999" stroke="#999999" points="425.9599,-101.7775 430.8193,-97.6791 424.4648,-97.8527 425.9599,-101.7775"/>
</g>
<!-- SimplePie\\HandlerStackInterface&#45;&gt;SimplePie\\Exception -->
<g id="edge23" class="edge">
<title>SimplePie\\HandlerStackInterface&#45;&gt;SimplePie\\Exception</title>
<path fill="none" stroke="#999999" d="M1576.0528,-422.9837C1581.2592,-421.086 1586.4101,-419.0888 1591.3174,-417.0174 1621.3702,-404.3323 1653.9124,-386.8257 1677.8557,-373.1765"/>
<polygon fill="#999999" stroke="#999999" points="1678.9749,-374.9555 1683.1359,-370.1496 1676.8861,-371.3118 1678.9749,-374.9555"/>
</g>
<!-- SimplePie\\Container&#45;&gt;SimplePie\\Exception -->
<g id="edge12" class="edge">
<title>SimplePie\\Container&#45;&gt;SimplePie\\Exception</title>
<path fill="none" stroke="#999999" d="M310.3818,-228.2078C334.2865,-223.9376 363.4029,-219.3766 389.7637,-217.0174 517.4449,-205.5904 549.9598,-212.0174 678.1514,-212.0174 678.1514,-212.0174 678.1514,-212.0174 1327.3096,-212.0174 1446.7322,-212.0174 1481.8379,-214.3099 1591.3174,-262.0174 1629.3641,-278.5969 1666.8562,-308.842 1690.0749,-329.6621"/>
<polygon fill="#999999" stroke="#999999" points="1688.6679,-331.2211 1694.5243,-333.6936 1691.488,-328.1087 1688.6679,-331.2211"/>
</g>
<!-- SimplePie\\ArrayObject -->
<g id="node8" class="node">
<title>SimplePie\\ArrayObject</title>
<path fill="#9999cc" stroke="#000000" d="M520.8897,-299.0174C520.8897,-299.0174 435.1552,-299.0174 435.1552,-299.0174 429.1552,-299.0174 423.1552,-293.0174 423.1552,-287.0174 423.1552,-287.0174 423.1552,-275.0174 423.1552,-275.0174 423.1552,-269.0174 429.1552,-263.0174 435.1552,-263.0174 435.1552,-263.0174 520.8897,-263.0174 520.8897,-263.0174 526.8897,-263.0174 532.8897,-269.0174 532.8897,-275.0174 532.8897,-275.0174 532.8897,-287.0174 532.8897,-287.0174 532.8897,-293.0174 526.8897,-299.0174 520.8897,-299.0174"/>
<text text-anchor="middle" x="478.0225" y="-278.0174" font-family="Times,serif" font-size="10.00" fill="#000033">SimplePie\ArrayObject</text>
</g>
<!-- SimplePie\\Container&#45;&gt;SimplePie\\ArrayObject -->
<g id="edge11" class="edge">
<title>SimplePie\\Container&#45;&gt;SimplePie\\ArrayObject</title>
<path fill="none" stroke="#999999" d="M310.4857,-247.8825C342.1158,-254.1382 383.2546,-262.2745 416.8505,-268.919"/>
<polygon fill="#999999" stroke="#999999" points="416.7383,-271.0374 423.0318,-270.1415 417.5533,-266.9172 416.7383,-271.0374"/>
</g>
<!-- SimplePie\\NotFoundExceptionInterface -->
<g id="node9" class="node">
<title>SimplePie\\NotFoundExceptionInterface</title>
<path fill="#9999cc" stroke="#000000" d="M554.0407,-204.0174C554.0407,-204.0174 402.0042,-204.0174 402.0042,-204.0174 396.0042,-204.0174 390.0042,-198.0174 390.0042,-192.0174 390.0042,-192.0174 390.0042,-180.0174 390.0042,-180.0174 390.0042,-174.0174 396.0042,-168.0174 402.0042,-168.0174 402.0042,-168.0174 554.0407,-168.0174 554.0407,-168.0174 560.0407,-168.0174 566.0407,-174.0174 566.0407,-180.0174 566.0407,-180.0174 566.0407,-192.0174 566.0407,-192.0174 566.0407,-198.0174 560.0407,-204.0174 554.0407,-204.0174"/>
<text text-anchor="middle" x="478.0225" y="-183.0174" font-family="Times,serif" font-size="10.00" fill="#000033">SimplePie\NotFoundExceptionInterface</text>
</g>
<!-- SimplePie\\Container&#45;&gt;SimplePie\\NotFoundExceptionInterface -->
<g id="edge13" class="edge">
<title>SimplePie\\Container&#45;&gt;SimplePie\\NotFoundExceptionInterface</title>
<path fill="none" stroke="#999999" d="M310.4857,-226.0876C335.8841,-220.013 367.4135,-212.472 396.2455,-205.5762"/>
<polygon fill="#999999" stroke="#999999" points="397.0069,-207.5534 402.3539,-204.1153 396.0299,-203.4686 397.0069,-207.5534"/>
</g>
<!-- SimplePie\\ContainerExceptionInterface -->
<g id="node10" class="node">
<title>SimplePie\\ContainerExceptionInterface</title>
<path fill="#9999cc" stroke="#000000" d="M553.9125,-256.0174C553.9125,-256.0174 402.1324,-256.0174 402.1324,-256.0174 396.1324,-256.0174 390.1324,-250.0174 390.1324,-244.0174 390.1324,-244.0174 390.1324,-232.0174 390.1324,-232.0174 390.1324,-226.0174 396.1324,-220.0174 402.1324,-220.0174 402.1324,-220.0174 553.9125,-220.0174 553.9125,-220.0174 559.9125,-220.0174 565.9125,-226.0174 565.9125,-232.0174 565.9125,-232.0174 565.9125,-244.0174 565.9125,-244.0174 565.9125,-250.0174 559.9125,-256.0174 553.9125,-256.0174"/>
<text text-anchor="middle" x="478.0225" y="-235.0174" font-family="Times,serif" font-size="10.00" fill="#000033">SimplePie\ContainerExceptionInterface</text>
</g>
<!-- SimplePie\\Container&#45;&gt;SimplePie\\ContainerExceptionInterface -->
<g id="edge14" class="edge">
<title>SimplePie\\Container&#45;&gt;SimplePie\\ContainerExceptionInterface</title>
<path fill="none" stroke="#999999" d="M310.4857,-238.0174C332.3057,-238.0174 358.6508,-238.0174 383.9231,-238.0174"/>
<polygon fill="#999999" stroke="#999999" points="383.9777,-240.1175 389.9777,-238.0174 383.9777,-235.9175 383.9777,-240.1175"/>
</g>
<!-- SimplePie\\Container&#45;&gt;Psr\\Container -->
<g id="edge10" class="edge">
<title>SimplePie\\Container&#45;&gt;Psr\\Container</title>
<path fill="none" stroke="#999999" d="M284.2452,-219.8617C309.0025,-202.0498 349.7787,-176.0109 389.7637,-165.0174 582.9811,-111.8944 640.1367,-155.0174 840.5239,-155.0174 840.5239,-155.0174 840.5239,-155.0174 1516.3984,-155.0174 1629.6588,-155.0174 1763.2246,-151.9239 1829.5391,-150.1794"/>
<polygon fill="#999999" stroke="#999999" points="1829.8015,-152.2733 1835.7437,-150.0149 1829.6902,-148.0747 1829.8015,-152.2733"/>
</g>
<!-- SimplePie\\Exception&#45;&gt;Psr\\Container -->
<g id="edge15" class="edge">
<title>SimplePie\\Exception&#45;&gt;Psr\\Container</title>
<path fill="none" stroke="#999999" d="M1721.0037,-333.845C1736.3287,-298.4555 1774.4248,-219.5201 1827.751,-171.0174 1828.6431,-170.206 1829.5707,-169.4168 1830.527,-168.6497"/>
<polygon fill="#999999" stroke="#999999" points="1831.9139,-170.2371 1835.517,-164.9999 1829.4344,-166.8471 1831.9139,-170.2371"/>
</g>
<!-- SimplePie\\HandlerStack&#45;&gt;SimplePie\\Configuration -->
<g id="edge18" class="edge">
<title>SimplePie\\HandlerStack&#45;&gt;SimplePie\\Configuration</title>
<path fill="none" stroke="#ff0099" stroke-width="2" d="M203.3493,-401.3272C183.1545,-396.8181 160.2928,-391.4652 139.4531,-386.3724"/>
<polygon fill="#ff0099" stroke="#ff0099" stroke-width="2" points="140.012,-383.6265 131.5749,-384.4355 138.6751,-389.0645 140.012,-383.6265"/>
</g>
<!-- SimplePie\\HandlerStack&#45;&gt;SimplePie\\HandlerStackInterface -->
<g id="edge16" class="edge">
<title>SimplePie\\HandlerStack&#45;&gt;SimplePie\\HandlerStackInterface</title>
<path fill="none" stroke="#999999" d="M317.873,-420.3209C398.197,-431.2298 548.9765,-449.0174 678.1514,-449.0174 678.1514,-449.0174 678.1514,-449.0174 1175.4155,-449.0174 1264.222,-449.0174 1366.0027,-446.2718 1435.0776,-443.9975"/>
<polygon fill="#999999" stroke="#999999" points="1435.3142,-446.0909 1441.2412,-443.793 1435.1748,-441.8932 1435.3142,-446.0909"/>
</g>
<!-- SimplePie\\HandlerStack&#45;&gt;SimplePie\\Exception -->
<g id="edge20" class="edge">
<title>SimplePie\\HandlerStack&#45;&gt;SimplePie\\Exception</title>
<path fill="none" stroke="#999999" d="M317.9055,-425.3991C340.2326,-430.2441 366.0988,-435.4061 389.7637,-439.0174 517.065,-458.4438 549.3764,-467.0174 678.1514,-467.0174 678.1514,-467.0174 678.1514,-467.0174 1327.3096,-467.0174 1444.6674,-467.0174 1482.1532,-505.0992 1591.3174,-462.0174 1636.3134,-444.2597 1675.2902,-401.8145 1696.5015,-375.1448"/>
<polygon fill="#999999" stroke="#999999" points="1698.2046,-376.3761 1700.2528,-370.3581 1694.8988,-373.7853 1698.2046,-376.3761"/>
</g>
<!-- SimplePie\\HandlerStack&#45;&gt;SimplePie\\Enum -->
<g id="edge19" class="edge">
<title>SimplePie\\HandlerStack&#45;&gt;SimplePie\\Enum</title>
<path fill="none" stroke="#999999" d="M318.0048,-414.2616C398.4836,-417.21 549.4438,-422.0174 678.1514,-422.0174 678.1514,-422.0174 678.1514,-422.0174 1014.3589,-422.0174 1108.1597,-422.0174 1217.7097,-417.9276 1279.1496,-415.2619"/>
<polygon fill="#999999" stroke="#999999" points="1279.4045,-417.3528 1285.3069,-414.9925 1279.2208,-413.1569 1279.4045,-417.3528"/>
</g>
<!-- SimplePie\\HandlerStack&#45;&gt;SimplePie\\Middleware -->
<g id="edge22" class="edge">
<title>SimplePie\\HandlerStack&#45;&gt;SimplePie\\Middleware</title>
<path fill="none" stroke="#ff0099" stroke-width="2" d="M310.2132,-393.9922C343.0709,-382.0532 386.2782,-366.3534 420.6208,-353.8748"/>
<polygon fill="#ff0099" stroke="#ff0099" stroke-width="2" points="421.6897,-356.4656 428.2524,-351.1018 419.7771,-351.2023 421.6897,-356.4656"/>
</g>
<!-- SimplePie\\HandlerStack&#45;&gt;Psr\\Log -->
<g id="edge17" class="edge">
<title>SimplePie\\HandlerStack&#45;&gt;Psr\\Log</title>
<path fill="none" stroke="#999999" d="M267.3379,-393.9967C287.2168,-341.8225 346.9452,-192.5958 389.7637,-165.0174 474.1064,-110.6944 740.201,-140.0174 840.5239,-140.0174 840.5239,-140.0174 840.5239,-140.0174 1516.3984,-140.0174 1635.1673,-140.0174 1775.2815,-120.9105 1837.9939,-111.3435"/>
<polygon fill="#999999" stroke="#999999" points="1838.5662,-113.3803 1844.1773,-110.3927 1837.9278,-109.2291 1838.5662,-113.3803"/>
</g>
<!-- SimplePie\\HandlerStack&#45;&gt;Skyzyx\\UtilityPack -->
<g id="edge21" class="edge">
<title>SimplePie\\HandlerStack&#45;&gt;Skyzyx\\UtilityPack</title>
<path fill="none" stroke="#999999" d="M267.5918,-393.6916C288.6991,-338.9544 352.6388,-177.8704 389.7637,-136.0174 401.8211,-122.4244 418.0386,-111.0188 433.2819,-102.1815"/>
<polygon fill="#999999" stroke="#999999" points="434.651,-103.8202 438.8443,-99.0425 432.5868,-100.1625 434.651,-103.8202"/>
</g>
<!-- SimplePie\\Middleware&#45;&gt;SimplePie\\Configuration -->
<g id="edge25" class="edge">
<title>SimplePie\\Middleware&#45;&gt;SimplePie\\Configuration</title>
<path fill="none" stroke="#ff0099" stroke-width="2" d="M423.761,-339.8391C350.3069,-347.307 219.3295,-358.7014 140.0996,-364.5626"/>
<polygon fill="#ff0099" stroke="#ff0099" stroke-width="2" points="139.4245,-361.8044 131.6502,-365.1808 139.8332,-367.3895 139.4245,-361.8044"/>
</g>
<!-- SimplePie\\Mixin -->
<g id="node11" class="node">
<title>SimplePie\\Mixin</title>
<path fill="#9999cc" stroke="#000000" d="M1357.6501,-344.0174C1357.6501,-344.0174 1296.969,-344.0174 1296.969,-344.0174 1290.969,-344.0174 1284.969,-338.0174 1284.969,-332.0174 1284.969,-332.0174 1284.969,-320.0174 1284.969,-320.0174 1284.969,-314.0174 1290.969,-308.0174 1296.969,-308.0174 1296.969,-308.0174 1357.6501,-308.0174 1357.6501,-308.0174 1363.6501,-308.0174 1369.6501,-314.0174 1369.6501,-320.0174 1369.6501,-320.0174 1369.6501,-332.0174 1369.6501,-332.0174 1369.6501,-338.0174 1363.6501,-344.0174 1357.6501,-344.0174"/>
<text text-anchor="middle" x="1327.3096" y="-323.0174" font-family="Times,serif" font-size="10.00" fill="#000033">SimplePie\Mixin</text>
</g>
<!-- SimplePie\\Middleware&#45;&gt;SimplePie\\Mixin -->
<g id="edge24" class="edge">
<title>SimplePie\\Middleware&#45;&gt;SimplePie\\Mixin</title>
<path fill="none" stroke="#999999" d="M532.2173,-318.3398C602.6838,-300.5769 729.8474,-273.0174 840.5239,-273.0174 840.5239,-273.0174 840.5239,-273.0174 1014.3589,-273.0174 1109.0564,-273.0174 1217.6381,-296.9002 1278.791,-312.6017"/>
<polygon fill="#999999" stroke="#999999" points="1278.5865,-314.7179 1284.9213,-314.1892 1279.6394,-310.652 1278.5865,-314.7179"/>
</g>
<!-- SimplePie\\Type -->
<g id="node12" class="node">
<title>SimplePie\\Type</title>
<path fill="#9999cc" stroke="#000000" d="M705.892,-369.0174C705.892,-369.0174 650.4107,-369.0174 650.4107,-369.0174 644.4107,-369.0174 638.4107,-363.0174 638.4107,-357.0174 638.4107,-357.0174 638.4107,-345.0174 638.4107,-345.0174 638.4107,-339.0174 644.4107,-333.0174 650.4107,-333.0174 650.4107,-333.0174 705.892,-333.0174 705.892,-333.0174 711.892,-333.0174 717.892,-339.0174 717.892,-345.0174 717.892,-345.0174 717.892,-357.0174 717.892,-357.0174 717.892,-363.0174 711.892,-369.0174 705.892,-369.0174"/>
<text text-anchor="middle" x="678.1514" y="-348.0174" font-family="Times,serif" font-size="10.00" fill="#000033">SimplePie\Type</text>
</g>
<!-- SimplePie\\Middleware&#45;&gt;SimplePie\\Type -->
<g id="edge26" class="edge">
<title>SimplePie\\Middleware&#45;&gt;SimplePie\\Type</title>
<path fill="none" stroke="#ff0099" stroke-width="2" d="M532.1802,-337.8885C562.7598,-340.6389 600.6421,-344.0461 630.1512,-346.7002"/>
<polygon fill="#ff0099" stroke="#ff0099" stroke-width="2" points="630.0205,-349.4996 638.2392,-347.4276 630.5222,-343.9222 630.0205,-349.4996"/>
</g>
<!-- SimplePie\\Mixin&#45;&gt;SimplePie\\HandlerStackInterface -->
<g id="edge28" class="edge">
<title>SimplePie\\Mixin&#45;&gt;SimplePie\\HandlerStackInterface</title>
<path fill="none" stroke="#999999" d="M1357.2713,-344.2395C1390.8797,-364.6795 1445.3445,-397.8039 1481.0188,-419.5003"/>
<polygon fill="#999999" stroke="#999999" points="1480.3593,-421.557 1486.5769,-422.8806 1482.5418,-417.9686 1480.3593,-421.557"/>
</g>
<!-- SimplePie\\Mixin&#45;&gt;Psr\\Log -->
<g id="edge27" class="edge">
<title>SimplePie\\Mixin&#45;&gt;Psr\\Log</title>
<path fill="none" stroke="#999999" d="M1369.5389,-308.9375C1474.3038,-266.5646 1744.451,-157.3016 1838.4349,-119.2891"/>
<polygon fill="#999999" stroke="#999999" points="1839.3285,-121.193 1844.1033,-116.9965 1837.7536,-117.2995 1839.3285,-121.193"/>
</g>
<!-- SimplePie\\Type&#45;&gt;SimplePie\\Configuration -->
<g id="edge42" class="edge">
<title>SimplePie\\Type&#45;&gt;SimplePie\\Configuration</title>
<path fill="none" stroke="#ff0099" stroke-width="2" d="M638.3355,-355.307C616.9943,-357.4215 590.2334,-359.7784 566.2813,-361.0174 413.7889,-368.9055 234.4119,-369.1956 139.8284,-368.649"/>
<polygon fill="#ff0099" stroke="#ff0099" stroke-width="2" points="139.7944,-365.8489 131.7772,-368.5993 139.7597,-371.4488 139.7944,-365.8489"/>
</g>
<!-- SimplePie\\Type&#45;&gt;SimplePie\\Exception -->
<g id="edge44" class="edge">
<title>SimplePie\\Type&#45;&gt;SimplePie\\Exception</title>
<path fill="none" stroke="#999999" d="M718.1296,-368.814C780.2188,-394.7865 904.1656,-440.0174 1014.3589,-440.0174 1014.3589,-440.0174 1014.3589,-440.0174 1175.4155,-440.0174 1261.6948,-440.0174 1283.9422,-446.3081 1369.4795,-435.0174 1397.8395,-431.274 1566.9962,-389.0573 1657.1044,-366.3211"/>
<polygon fill="#999999" stroke="#999999" points="1657.8843,-368.2902 1663.1878,-364.7855 1656.8562,-364.218 1657.8843,-368.2902"/>
</g>
<!-- SimplePie\\Type&#45;&gt;SimplePie\\Enum -->
<g id="edge46" class="edge">
<title>SimplePie\\Type&#45;&gt;SimplePie\\Enum</title>
<path fill="none" stroke="#999999" d="M718.0066,-356.7193C797.5928,-367.8794 981.9435,-392.5985 1137.6914,-405.0174 1185.8598,-408.8582 1241.0684,-410.9239 1279.4432,-411.9878"/>
<polygon fill="#999999" stroke="#999999" points="1279.3994,-414.0873 1285.454,-412.1501 1279.5129,-409.8888 1279.3994,-414.0873"/>
</g>
<!-- SimplePie\\Type&#45;&gt;SimplePie\\Mixin -->
<g id="edge41" class="edge">
<title>SimplePie\\Type&#45;&gt;SimplePie\\Mixin</title>
<path fill="none" stroke="#999999" d="M718.2489,-349.2471C773.3884,-346.8311 875.7226,-342.414 963.0264,-339.0174 1076.1253,-334.6173 1208.9994,-330.0201 1278.8138,-327.6489"/>
<polygon fill="#999999" stroke="#999999" points="1279.0351,-329.7427 1284.9604,-327.4404 1278.8926,-325.5451 1279.0351,-329.7427"/>
</g>
<!-- SimplePie\\Parser -->
<g id="node13" class="node">
<title>SimplePie\\Parser</title>
<path fill="#9999cc" stroke="#000000" d="M1044.7408,-378.0174C1044.7408,-378.0174 983.977,-378.0174 983.977,-378.0174 977.977,-378.0174 971.977,-372.0174 971.977,-366.0174 971.977,-366.0174 971.977,-354.0174 971.977,-354.0174 971.977,-348.0174 977.977,-342.0174 983.977,-342.0174 983.977,-342.0174 1044.7408,-342.0174 1044.7408,-342.0174 1050.7408,-342.0174 1056.7408,-348.0174 1056.7408,-354.0174 1056.7408,-354.0174 1056.7408,-366.0174 1056.7408,-366.0174 1056.7408,-372.0174 1050.7408,-378.0174 1044.7408,-378.0174"/>
<text text-anchor="middle" x="1014.3589" y="-357.0174" font-family="Times,serif" font-size="10.00" fill="#000033">SimplePie\Parser</text>
</g>
<!-- SimplePie\\Type&#45;&gt;SimplePie\\Parser -->
<g id="edge43" class="edge">
<title>SimplePie\\Type&#45;&gt;SimplePie\\Parser</title>
<path fill="none" stroke="#ff0099" stroke-width="2" d="M718.039,-350.567C779.2572,-351.2824 896.3284,-354.3667 963.5398,-356.9902"/>
<polygon fill="#ff0099" stroke="#ff0099" stroke-width="2" points="963.7762,-359.8018 971.8818,-357.3241 964.0002,-354.2063 963.7762,-359.8018"/>
</g>
<!-- SimplePie\\SimplePie -->
<g id="node16" class="node">
<title>SimplePie\\SimplePie</title>
<path fill="#9999cc" stroke="#000000" d="M879.0288,-326.0174C879.0288,-326.0174 802.019,-326.0174 802.019,-326.0174 796.019,-326.0174 790.019,-320.0174 790.019,-314.0174 790.019,-314.0174 790.019,-302.0174 790.019,-302.0174 790.019,-296.0174 796.019,-290.0174 802.019,-290.0174 802.019,-290.0174 879.0288,-290.0174 879.0288,-290.0174 885.0288,-290.0174 891.0288,-296.0174 891.0288,-302.0174 891.0288,-302.0174 891.0288,-314.0174 891.0288,-314.0174 891.0288,-320.0174 885.0288,-326.0174 879.0288,-326.0174"/>
<text text-anchor="middle" x="840.5239" y="-305.0174" font-family="Times,serif" font-size="10.00" fill="#000033">SimplePie\SimplePie</text>
</g>
<!-- SimplePie\\Type&#45;&gt;SimplePie\\SimplePie -->
<g id="edge45" class="edge">
<title>SimplePie\\Type&#45;&gt;SimplePie\\SimplePie</title>
<path fill="none" stroke="#ff0099" stroke-width="2" d="M718.2884,-340.3882C737.4414,-335.3161 760.7307,-329.1485 781.8222,-323.563"/>
<polygon fill="#ff0099" stroke="#ff0099" stroke-width="2" points="782.7683,-326.2091 789.7849,-321.4543 781.3346,-320.7957 782.7683,-326.2091"/>
</g>
<!-- SimplePie\\Parser&#45;&gt;SimplePie\\Configuration -->
<g id="edge32" class="edge">
<title>SimplePie\\Parser&#45;&gt;SimplePie\\Configuration</title>
<path fill="none" stroke="#ff0099" stroke-width="2" d="M971.9349,-363.5398C908.2017,-368.5192 783.9349,-377.0174 678.1514,-377.0174 478.0225,-377.0174 478.0225,-377.0174 478.0225,-377.0174 358.7287,-377.0174 219.6845,-373.0526 139.6608,-370.3861"/>
<polygon fill="#ff0099" stroke="#ff0099" stroke-width="2" points="139.7175,-367.5865 131.628,-370.1162 139.5294,-373.1834 139.7175,-367.5865"/>
</g>
<!-- SimplePie\\Parser&#45;&gt;SimplePie\\Exception -->
<g id="edge34" class="edge">
<title>SimplePie\\Parser&#45;&gt;SimplePie\\Exception</title>
<path fill="none" stroke="#999999" d="M1056.8793,-358.8193C1080.6498,-358.1906 1110.8152,-357.461 1137.6914,-357.0174 1328.0767,-353.8756 1553.9036,-352.6411 1657.0609,-352.215"/>
<polygon fill="#999999" stroke="#999999" points="1657.087,-354.315 1663.0784,-352.1905 1657.0698,-350.115 1657.087,-354.315"/>
</g>
<!-- SimplePie\\Parser&#45;&gt;SimplePie\\Enum -->
<g id="edge33" class="edge">
<title>SimplePie\\Parser&#45;&gt;SimplePie\\Enum</title>
<path fill="none" stroke="#999999" d="M1056.8204,-376.1376C1080.3148,-384.3691 1110.2356,-393.7376 1137.6914,-399.0174 1185.384,-408.1888 1240.8885,-411.4425 1279.4725,-412.5512"/>
<polygon fill="#999999" stroke="#999999" points="1279.4624,-414.6515 1285.5159,-412.7113 1279.5737,-410.453 1279.4624,-414.6515"/>
</g>
<!-- SimplePie\\Parser&#45;&gt;SimplePie\\Mixin -->
<g id="edge30" class="edge">
<title>SimplePie\\Parser&#45;&gt;SimplePie\\Mixin</title>
<path fill="none" stroke="#999999" d="M1056.8905,-355.3966C1114.7337,-349.1124 1217.9485,-337.8988 1278.7592,-331.2921"/>
<polygon fill="#999999" stroke="#999999" points="1279.1329,-333.3639 1284.8709,-330.6281 1278.6792,-329.1885 1279.1329,-333.3639"/>
</g>
<!-- SimplePie\\Parser&#45;&gt;SimplePie\\Type -->
<g id="edge31" class="edge">
<title>SimplePie\\Parser&#45;&gt;SimplePie\\Type</title>
<path fill="none" stroke="#ff0099" stroke-width="2" d="M971.8818,-360.9553C909.1288,-360.4743 791.9946,-357.3723 726.1922,-354.4792"/>
<polygon fill="#ff0099" stroke="#ff0099" stroke-width="2" points="726.1577,-351.6749 718.039,-354.1094 725.9039,-357.2691 726.1577,-351.6749"/>
</g>
<!-- SimplePie\\Util -->
<g id="node14" class="node">
<title>SimplePie\\Util</title>
<path fill="#9999cc" stroke="#000000" d="M1201.3651,-396.0174C1201.3651,-396.0174 1149.4659,-396.0174 1149.4659,-396.0174 1143.4659,-396.0174 1137.4659,-390.0174 1137.4659,-384.0174 1137.4659,-384.0174 1137.4659,-372.0174 1137.4659,-372.0174 1137.4659,-366.0174 1143.4659,-360.0174 1149.4659,-360.0174 1149.4659,-360.0174 1201.3651,-360.0174 1201.3651,-360.0174 1207.3651,-360.0174 1213.3651,-366.0174 1213.3651,-372.0174 1213.3651,-372.0174 1213.3651,-384.0174 1213.3651,-384.0174 1213.3651,-390.0174 1207.3651,-396.0174 1201.3651,-396.0174"/>
<text text-anchor="middle" x="1175.4155" y="-375.0174" font-family="Times,serif" font-size="10.00" fill="#000033">SimplePie\Util</text>
</g>
<!-- SimplePie\\Parser&#45;&gt;SimplePie\\Util -->
<g id="edge35" class="edge">
<title>SimplePie\\Parser&#45;&gt;SimplePie\\Util</title>
<path fill="none" stroke="#ff0099" stroke-width="2" d="M1057.0963,-364.7938C1079.3398,-367.2798 1106.5584,-370.3218 1129.2792,-372.8611"/>
<polygon fill="#ff0099" stroke="#ff0099" stroke-width="2" points="1129.1675,-375.666 1137.429,-373.772 1129.7895,-370.1007 1129.1675,-375.666"/>
</g>
<!-- Psr\\Http -->
<g id="node20" class="node">
<title>Psr\\Http</title>
<path fill="#9999cc" stroke="#000000" d="M1886.2485,-210.0174C1886.2485,-210.0174 1856.2485,-210.0174 1856.2485,-210.0174 1850.2485,-210.0174 1844.2485,-204.0174 1844.2485,-198.0174 1844.2485,-198.0174 1844.2485,-186.0174 1844.2485,-186.0174 1844.2485,-180.0174 1850.2485,-174.0174 1856.2485,-174.0174 1856.2485,-174.0174 1886.2485,-174.0174 1886.2485,-174.0174 1892.2485,-174.0174 1898.2485,-180.0174 1898.2485,-186.0174 1898.2485,-186.0174 1898.2485,-198.0174 1898.2485,-198.0174 1898.2485,-204.0174 1892.2485,-210.0174 1886.2485,-210.0174"/>
<text text-anchor="middle" x="1871.2485" y="-189.0174" font-family="Times,serif" font-size="10.00" fill="#000033">Psr\Http</text>
</g>
<!-- SimplePie\\Parser&#45;&gt;Psr\\Http -->
<g id="edge29" class="edge">
<title>SimplePie\\Parser&#45;&gt;Psr\\Http</title>
<path fill="none" stroke="#999999" d="M1039.0744,-341.9485C1101.2072,-297.2363 1263.5039,-185.0174 1327.3096,-185.0174 1327.3096,-185.0174 1327.3096,-185.0174 1516.3984,-185.0174 1634.6489,-185.0174 1775.0219,-188.9512 1837.8964,-190.9209"/>
<polygon fill="#999999" stroke="#999999" points="1838.0328,-193.0261 1844.0962,-191.1166 1838.1655,-188.8282 1838.0328,-193.0261"/>
</g>
<!-- SimplePie\\Util&#45;&gt;SimplePie\\Configuration -->
<g id="edge48" class="edge">
<title>SimplePie\\Util&#45;&gt;SimplePie\\Configuration</title>
<path fill="none" stroke="#ff0099" stroke-width="2" d="M1137.5043,-379.5128C1075.4379,-381.8283 948.2607,-386.0174 840.5239,-386.0174 478.0225,-386.0174 478.0225,-386.0174 478.0225,-386.0174 358.6401,-386.0174 219.6249,-378.0878 139.6307,-372.7548"/>
<polygon fill="#ff0099" stroke="#ff0099" stroke-width="2" points="139.7708,-369.9579 131.601,-372.2149 139.3951,-375.5453 139.7708,-369.9579"/>
</g>
<!-- SimplePie\\Util&#45;&gt;SimplePie\\Enum -->
<g id="edge49" class="edge">
<title>SimplePie\\Util&#45;&gt;SimplePie\\Enum</title>
<path fill="none" stroke="#999999" d="M1213.353,-386.7591C1233.3526,-391.3675 1258.0902,-397.0676 1279.4013,-401.9782"/>
<polygon fill="#999999" stroke="#999999" points="1278.9961,-404.0398 1285.3145,-403.3407 1279.9392,-399.9471 1278.9961,-404.0398"/>
</g>
<!-- SimplePie\\Util&#45;&gt;SimplePie\\Mixin -->
<g id="edge47" class="edge">
<title>SimplePie\\Util&#45;&gt;SimplePie\\Mixin</title>
<path fill="none" stroke="#999999" d="M1213.353,-365.0298C1233.2722,-358.2105 1257.8916,-349.7823 1279.1444,-342.5065"/>
<polygon fill="#999999" stroke="#999999" points="1280.0464,-344.4174 1285.0428,-340.4872 1278.686,-340.4438 1280.0464,-344.4174"/>
</g>
<!-- SimplePie\\Sanitizer -->
<g id="node15" class="node">
<title>SimplePie\\Sanitizer</title>
<path fill="#9999cc" stroke="#000000" d="M109.6587,-274.0174C109.6587,-274.0174 37.7895,-274.0174 37.7895,-274.0174 31.7895,-274.0174 25.7895,-268.0174 25.7895,-262.0174 25.7895,-262.0174 25.7895,-250.0174 25.7895,-250.0174 25.7895,-244.0174 31.7895,-238.0174 37.7895,-238.0174 37.7895,-238.0174 109.6587,-238.0174 109.6587,-238.0174 115.6587,-238.0174 121.6587,-244.0174 121.6587,-250.0174 121.6587,-250.0174 121.6587,-262.0174 121.6587,-262.0174 121.6587,-268.0174 115.6587,-274.0174 109.6587,-274.0174"/>
<text text-anchor="middle" x="73.7241" y="-253.0174" font-family="Times,serif" font-size="10.00" fill="#000033">SimplePie\Sanitizer</text>
</g>
<!-- SimplePie\\SimplePie&#45;&gt;SimplePie\\Configuration -->
<g id="edge37" class="edge">
<title>SimplePie\\SimplePie&#45;&gt;SimplePie\\Configuration</title>
<path fill="none" stroke="#ff0099" stroke-width="2" d="M789.7585,-310.5323C748.5621,-313.2906 689.1763,-318.9004 638.2813,-330.0174 605.3273,-337.2156 599.4965,-348.1418 566.2813,-354.0174 525.4783,-361.2352 264.3107,-365.5468 139.7025,-367.2169"/>
<polygon fill="#ff0099" stroke="#ff0099" stroke-width="2" points="139.6582,-364.4171 131.6961,-367.3231 139.7326,-370.0166 139.6582,-364.4171"/>
</g>
<!-- SimplePie\\SimplePie&#45;&gt;SimplePie\\Mixin -->
<g id="edge36" class="edge">
<title>SimplePie\\SimplePie&#45;&gt;SimplePie\\Mixin</title>
<path fill="none" stroke="#999999" d="M891.1134,-313.9038C913.1686,-316.229 939.3447,-318.6647 963.0264,-320.0174 1075.9701,-326.4687 1208.9059,-326.8343 1278.7715,-326.4688"/>
<polygon fill="#999999" stroke="#999999" points="1278.9348,-328.568 1284.9227,-326.4339 1278.9108,-324.3681 1278.9348,-328.568"/>
</g>
<!-- SimplePie\\SimplePie&#45;&gt;SimplePie\\Parser -->
<g id="edge39" class="edge">
<title>SimplePie\\SimplePie&#45;&gt;SimplePie\\Parser</title>
<path fill="none" stroke="#ff0099" stroke-width="2" d="M891.2715,-323.1978C914.131,-330.0358 941.053,-338.0891 963.8804,-344.9176"/>
<polygon fill="#ff0099" stroke="#ff0099" stroke-width="2" points="963.3037,-347.6676 971.7706,-347.2778 964.9086,-342.3025 963.3037,-347.6676"/>
</g>
<!-- SimplePie\\JsonParser -->
<g id="node17" class="node">
<title>SimplePie\\JsonParser</title>
<path fill="#9999cc" stroke="#000000" d="M1053.5245,-317.0174C1053.5245,-317.0174 975.1933,-317.0174 975.1933,-317.0174 969.1933,-317.0174 963.1933,-311.0174 963.1933,-305.0174 963.1933,-305.0174 963.1933,-293.0174 963.1933,-293.0174 963.1933,-287.0174 969.1933,-281.0174 975.1933,-281.0174 975.1933,-281.0174 1053.5245,-281.0174 1053.5245,-281.0174 1059.5245,-281.0174 1065.5245,-287.0174 1065.5245,-293.0174 1065.5245,-293.0174 1065.5245,-305.0174 1065.5245,-305.0174 1065.5245,-311.0174 1059.5245,-317.0174 1053.5245,-317.0174"/>
<text text-anchor="middle" x="1014.3589" y="-296.0174" font-family="Times,serif" font-size="10.00" fill="#000033">SimplePie\JsonParser</text>
</g>
<!-- SimplePie\\SimplePie&#45;&gt;SimplePie\\JsonParser -->
<g id="edge40" class="edge">
<title>SimplePie\\SimplePie&#45;&gt;SimplePie\\JsonParser</title>
<path fill="none" stroke="#999999" d="M891.2715,-305.3901C911.7939,-304.3275 935.5907,-303.0955 956.7595,-301.9995"/>
<polygon fill="#999999" stroke="#999999" points="957.0625,-304.0867 962.9458,-301.6792 956.8453,-299.8924 957.0625,-304.0867"/>
</g>
<!-- SimplePie\\SimplePie&#45;&gt;Psr\\Http -->
<g id="edge38" class="edge">
<title>SimplePie\\SimplePie&#45;&gt;Psr\\Http</title>
<path fill="none" stroke="#999999" d="M865.1317,-289.9763C918.663,-252.5698 1050.9057,-170.0174 1175.4155,-170.0174 1175.4155,-170.0174 1175.4155,-170.0174 1516.3984,-170.0174 1634.8529,-170.0174 1775.1241,-182.3807 1837.9348,-188.5711"/>
<polygon fill="#999999" stroke="#999999" points="1837.9499,-190.6829 1844.1281,-189.1863 1838.3651,-186.5035 1837.9499,-190.6829"/>
</g>
</g>
</svg>
